TITLE ""
FILE "P1Q_t_0030-0039.mp3" MP3
  TRACK 01 AUDIO
    TITLE "P1Q_t_0030-0039_01"
    INDEX 01 00:00:00
  TRACK 02 AUDIO
    TITLE "P1Q_t_0030-0039_02"
    INDEX 01 00:01:16
  TRACK 03 AUDIO
    TITLE "P1Q_t_0030-0039_03"
    INDEX 01 00:01:63
  TRACK 04 AUDIO
    TITLE "P1Q_t_0030-0039_04"
    INDEX 01 00:03:20
  TRACK 05 AUDIO
    TITLE "P1Q_t_0030-0039_05"
    INDEX 01 00:03:40
  TRACK 06 AUDIO
    TITLE "P1Q_t_0030-0039_06"
    INDEX 01 00:05:37
  TRACK 07 AUDIO
    TITLE "P1Q_t_0030-0039_07"
    INDEX 01 00:05:57
  TRACK 08 AUDIO
    TITLE "P1Q_t_0030-0039_08"
    INDEX 01 00:10:07
  TRACK 09 AUDIO
    TITLE "P1Q_t_0030-0039_09"
    INDEX 01 00:10:56
  TRACK 10 AUDIO
    TITLE "P1Q_t_0030-0039_10"
    INDEX 01 00:11:63
  TRACK 11 AUDIO
    TITLE "P1Q_t_0030-0039_11"
    INDEX 01 00:12:08
  TRACK 12 AUDIO
    TITLE "P1Q_t_0030-0039_12"
    INDEX 01 00:15:22
  TRACK 13 AUDIO
    TITLE "P1Q_t_0030-0039_13"
    INDEX 01 00:15:39
  TRACK 14 AUDIO
    TITLE "P1Q_t_0030-0039_14"
    INDEX 01 00:20:27
  TRACK 15 AUDIO
    TITLE "P1Q_t_0030-0039_15"
    INDEX 01 00:20:74
  TRACK 16 AUDIO
    TITLE "P1Q_t_0030-0039_16"
    INDEX 01 00:22:00
  TRACK 17 AUDIO
    TITLE "P1Q_t_0030-0039_17"
    INDEX 01 00:22:22
  TRACK 18 AUDIO
    TITLE "P1Q_t_0030-0039_18"
    INDEX 01 00:25:51
  TRACK 19 AUDIO
    TITLE "P1Q_t_0030-0039_19"
    INDEX 01 00:25:71
  TRACK 20 AUDIO
    TITLE "P1Q_t_0030-0039_20"
    INDEX 01 00:30:02
  TRACK 21 AUDIO
    TITLE "P1Q_t_0030-0039_21"
    INDEX 01 00:30:49
  TRACK 22 AUDIO
    TITLE "P1Q_t_0030-0039_22"
    INDEX 01 00:31:56
  TRACK 23 AUDIO
    TITLE "P1Q_t_0030-0039_23"
    INDEX 01 00:32:02
  TRACK 24 AUDIO
    TITLE "P1Q_t_0030-0039_24"
    INDEX 01 00:35:54
  TRACK 25 AUDIO
    TITLE "P1Q_t_0030-0039_25"
    INDEX 01 00:35:71
  TRACK 26 AUDIO
    TITLE "P1Q_t_0030-0039_26"
    INDEX 01 00:39:61
  TRACK 27 AUDIO
    TITLE "P1Q_t_0030-0039_27"
    INDEX 01 00:40:41
  TRACK 28 AUDIO
    TITLE "P1Q_t_0030-0039_28"
    INDEX 01 00:41:62
  TRACK 29 AUDIO
    TITLE "P1Q_t_0030-0039_29"
    INDEX 01 00:42:09
  TRACK 30 AUDIO
    TITLE "P1Q_t_0030-0039_30"
    INDEX 01 00:45:38
  TRACK 31 AUDIO
    TITLE "P1Q_t_0030-0039_31"
    INDEX 01 00:45:58
  TRACK 32 AUDIO
    TITLE "P1Q_t_0030-0039_32"
    INDEX 01 00:50:53
  TRACK 33 AUDIO
    TITLE "P1Q_t_0030-0039_33"
    INDEX 01 00:51:25
  TRACK 34 AUDIO
    TITLE "P1Q_t_0030-0039_34"
    INDEX 01 00:52:40
  TRACK 35 AUDIO
    TITLE "P1Q_t_0030-0039_35"
    INDEX 01 00:52:62
  TRACK 36 AUDIO
    TITLE "P1Q_t_0030-0039_36"
    INDEX 01 00:58:08
  TRACK 37 AUDIO
    TITLE "P1Q_t_0030-0039_37"
    INDEX 01 00:58:27
  TRACK 38 AUDIO
    TITLE "P1Q_t_0030-0039_38"
    INDEX 01 01:03:05
  TRACK 39 AUDIO
    TITLE "P1Q_t_0030-0039_39"
    INDEX 01 01:03:50
  TRACK 40 AUDIO
    TITLE "P1Q_t_0030-0039_40"
    INDEX 01 01:04:63
  TRACK 41 AUDIO
    TITLE "P1Q_t_0030-0039_41"
    INDEX 01 01:05:08
  TRACK 42 AUDIO
    TITLE "P1Q_t_0030-0039_42"
    INDEX 01 01:06:29
  TRACK 43 AUDIO
    TITLE "P1Q_t_0030-0039_43"
    INDEX 01 01:06:50
  TRACK 44 AUDIO
    TITLE "P1Q_t_0030-0039_44"
    INDEX 01 01:11:32
  TRACK 45 AUDIO
    TITLE "P1Q_t_0030-0039_45"
    INDEX 01 01:12:04
  TRACK 46 AUDIO
    TITLE "P1Q_t_0030-0039_46"
    INDEX 01 01:13:13
  TRACK 47 AUDIO
    TITLE "P1Q_t_0030-0039_47"
    INDEX 01 01:13:35
  TRACK 48 AUDIO
    TITLE "P1Q_t_0030-0039_48"
    INDEX 01 01:16:43
  TRACK 49 AUDIO
    TITLE "P1Q_t_0030-0039_49"
    INDEX 01 01:16:62
  TRACK 50 AUDIO
    TITLE "P1Q_t_0030-0039_50"
    INDEX 01 01:21:26
  TRACK 51 AUDIO
    TITLE "P1Q_t_0030-0039_51"
    INDEX 01 01:21:71
  TRACK 52 AUDIO
    TITLE "P1Q_t_0030-0039_52"
    INDEX 01 01:23:04
  TRACK 53 AUDIO
    TITLE "P1Q_t_0030-0039_53"
    INDEX 01 01:23:25
  TRACK 54 AUDIO
    TITLE "P1Q_t_0030-0039_54"
    INDEX 01 01:26:28
  TRACK 55 AUDIO
    TITLE "P1Q_t_0030-0039_55"
    INDEX 01 01:26:47
  TRACK 56 AUDIO
    TITLE "P1Q_t_0030-0039_56"
    INDEX 01 01:32:54
  TRACK 57 AUDIO
    TITLE "P1Q_t_0030-0039_57"
    INDEX 01 01:33:24
  TRACK 58 AUDIO
    TITLE "P1Q_t_0030-0039_58"
    INDEX 01 01:34:25
  TRACK 59 AUDIO
    TITLE "P1Q_t_0030-0039_59"
    INDEX 01 01:34:49
  TRACK 60 AUDIO
    TITLE "P1Q_t_0030-0039_60"
    INDEX 01 01:37:23
  TRACK 61 AUDIO
    TITLE "P1Q_t_0030-0039_61"
    INDEX 01 01:37:45
  TRACK 62 AUDIO
    TITLE "P1Q_t_0030-0039_62"
    INDEX 01 01:42:74
